<svg width="64" height="66" viewBox="0 0 64 66" fill="none" xmlns="http://www.w3.org/2000/svg">
<path d="M61.5826 28.5855C59.1048 23.9924 54.9348 20.5477 50.7044 19.5203C50.7649 19.1577 50.7649 18.7951 50.7649 18.4325C50.7649 14.2625 48.7705 9.79037 45.5071 6.34561C49.1936 7.19169 53.6053 9.36733 57.4127 14.6251C60.2531 18.5534 61.7035 22.6629 61.7035 26.8329C61.6431 27.4372 61.5826 28.0415 61.5826 28.5855ZM57.3522 50.5231C53.5449 55.7809 49.1331 58.017 45.4466 58.8026C48.7101 55.3579 50.7044 50.8253 50.7044 46.7158C50.7044 46.3532 50.7044 45.9906 50.644 45.628C54.8744 44.6006 59.0444 41.1558 61.5222 36.5628C61.5826 37.1671 61.5826 37.711 61.5826 38.3154C61.6431 42.4854 60.1926 46.5949 57.3522 50.5231ZM47.864 43.6336C47.6827 43.6336 47.5014 43.6336 47.3201 43.6336C44.1775 43.6336 43.0293 42.4249 42.6062 41.6997C42.0623 40.7328 42.3041 39.8867 42.4249 39.7054L42.4854 39.5845C42.5458 39.4636 43.0897 39.101 43.8754 39.101C44.0567 39.101 44.238 39.101 44.4193 39.1615C45.3258 39.3428 46.9575 40.1889 47.864 43.6336ZM47.864 21.5751C46.8971 25.0198 45.3258 25.8055 44.4193 25.9868C44.238 26.0472 44.0567 26.0472 43.8754 26.0472C43.0897 26.0472 42.5458 25.6846 42.4854 25.5637L42.4249 25.4429C42.3041 25.2616 42.0623 24.4759 42.6062 23.509C43.0293 22.7838 44.1775 21.5751 47.3201 21.5751C47.5014 21.5751 47.6827 21.5751 47.864 21.5751ZM14.0812 32.5741C16.136 30.9424 18.1303 30.3985 19.4599 31.0028C20.4873 31.4863 20.7894 32.272 20.7894 32.5137V32.6346C20.7894 32.8159 20.4873 33.6619 19.4599 34.085C18.0699 34.7498 16.136 34.2059 14.0812 32.5741ZM42.6062 58.2587C42.2436 58.6213 41.8206 58.9235 41.3975 59.2257C40.8536 59.2257 40.3097 59.2257 39.8263 59.1653C34.8102 58.6818 30.1568 56.0831 28.0415 52.5779C31.728 50.221 32.5137 47.8036 32.5137 46.1114C32.5137 45.8697 32.5137 45.6884 32.4533 45.5071C32.2115 43.7545 31.0633 42.1832 29.7337 41.8206C29.4315 41.6997 29.1294 41.6393 28.7668 41.6393C27.6185 41.6393 26.289 42.2436 25.3824 43.2106C24.7177 43.9358 23.8716 45.2653 23.8716 47.3201C23.8716 48.5892 24.1737 50.0397 24.7781 51.5505C23.4485 52.0944 21.8168 52.3966 20.1246 52.3966C17.1634 52.3966 14.0208 51.4901 11.3617 49.9188C10.9386 49.6771 10.5156 49.3749 10.0321 49.0727C9.8508 48.5288 9.72993 48.0453 9.60906 47.5619C9.30689 46.2927 9.18602 44.9632 9.18602 43.5732C9.18602 39.9471 10.3343 36.5024 12.2077 34.2663C14.2625 35.9585 16.1964 36.8045 18.0699 36.8045C18.8555 36.8045 19.6412 36.6232 20.3664 36.3211C21.9377 35.5958 23.0255 34.085 23.0255 32.695V32.6346V32.5741C23.0255 31.1841 21.8772 29.6733 20.3664 28.9481C19.7016 28.6459 18.916 28.4646 18.0699 28.4646C16.1964 28.4646 14.2625 29.3107 12.2077 31.0028C10.2738 28.7668 9.18602 25.322 9.18602 21.6959C9.18602 20.3664 9.30689 19.0368 9.60906 17.7073C9.72993 17.2238 9.8508 16.6799 10.0321 16.1964C10.4551 15.8942 10.9386 15.5921 11.3617 15.3503C14.0812 13.7186 17.1634 12.8725 20.1246 12.8725C21.8168 12.8725 23.3881 13.1747 24.7781 13.7186C24.1737 15.2899 23.8716 16.6799 23.8716 17.949C23.8716 20.0642 24.6572 21.3333 25.3824 22.0585C26.289 23.0255 27.5581 23.6298 28.7668 23.6298C29.1294 23.6298 29.4315 23.5694 29.7337 23.4485C31.0633 23.0859 32.2115 21.5146 32.3928 19.762C32.3928 19.5807 32.4533 19.3994 32.4533 19.1577C32.4533 17.4655 31.6676 14.9877 27.9811 12.6912C30.1568 9.18602 34.7498 6.58735 39.7658 6.10387C40.2493 6.04344 40.7932 6.04344 41.3371 6.04344C41.7602 6.34561 42.1832 6.70822 42.5458 7.07082C46.051 10.2134 48.2871 14.6251 48.2871 18.6138C48.2871 18.8555 48.2871 19.0973 48.2266 19.3994C47.864 19.3994 47.5618 19.339 47.1992 19.339C42.848 19.339 41.0954 21.3333 40.4306 22.4816C39.5845 23.9924 39.5845 25.9868 40.4306 27.0746C41.1558 28.1624 43.0293 28.8272 44.7819 28.4646C46.2927 28.1624 48.8914 26.9537 50.1605 21.9981C54.1492 22.9651 58.017 26.5911 60.0718 31.2446C60.2531 31.728 60.4344 32.2115 60.6157 32.7554C60.4344 33.2993 60.2531 33.7828 60.0718 34.2663C58.0774 38.9197 54.1492 42.4854 50.1605 43.5127C48.8914 38.6176 46.2927 37.3484 44.7819 37.0463C43.0897 36.7441 41.2162 37.3484 40.4306 38.4967C39.5845 39.5845 39.5845 41.5184 40.4306 43.0293C41.0954 44.238 42.848 46.1719 47.1992 46.1719C47.5014 46.1719 47.864 46.1719 48.2266 46.1114C48.2266 46.3532 48.2871 46.5949 48.2871 46.8971C48.3475 50.7044 46.1719 55.1161 42.6062 58.2587ZM26.3494 47.3201C26.3494 45.9906 26.8329 45.2049 27.1955 44.7819C27.7394 44.1775 28.4042 43.9962 28.8272 43.9962C28.9481 43.9962 29.0085 43.9962 29.0085 43.9962L29.1294 44.0567C29.3107 44.1171 29.9754 44.661 30.1568 45.7488C30.1568 45.8697 30.1568 45.9301 30.1568 46.051C30.1568 47.5014 29.0689 49.0123 27.0142 50.4023C26.5307 49.254 26.3494 48.2266 26.3494 47.3201ZM23.3881 61.5826C17.2238 59.5883 13.779 56.0831 11.8451 52.8196C14.5042 54.0888 17.4655 54.814 20.3059 54.814C22.3607 54.814 24.2946 54.4514 25.9868 53.7262C28.2229 57.4731 32.8159 60.3739 37.9528 61.2805C33.5411 63.1539 28.5855 63.2748 23.3881 61.5826ZM7.13126 46.2927C4.65345 43.4523 2.35694 39.101 2.35694 32.5741C2.35694 26.0472 4.59301 21.6959 7.13126 18.8555C7.01039 19.762 6.94995 20.6686 6.94995 21.5751C6.94995 25.9263 8.27951 29.8546 10.6364 32.5741C8.27951 35.2937 6.94995 39.2219 6.94995 43.5732C6.94995 44.4797 7.01039 45.3862 7.13126 46.2927ZM26.9537 14.746C29.6733 16.559 30.0963 18.1907 30.0963 19.0973C30.0963 19.2181 30.0963 19.339 30.0963 19.3994C29.9754 20.4873 29.2502 21.0312 29.1294 21.0916L29.0085 21.152C29.0085 21.152 28.9481 21.152 28.8272 21.152C28.4042 21.152 27.7394 20.9707 27.1955 20.3664C26.8329 19.9433 26.3494 19.1577 26.3494 17.8281C26.3494 16.9821 26.5307 15.8942 26.9537 14.746ZM23.3881 3.62606C25.8659 2.84042 28.2833 2.41737 30.5798 2.41737C33.1785 2.41737 35.6563 2.90085 37.8923 3.92823C32.7554 4.89518 28.2229 7.7356 25.9263 11.4825C24.2342 10.7573 22.3003 10.3947 20.2455 10.3947C17.4051 10.3947 14.5042 11.1199 11.7847 12.389C13.7186 9.12559 17.1634 5.6204 23.3881 3.62606ZM64 26.8329C64 22.1794 62.4287 17.5864 59.2861 13.2351C53.6657 5.49953 46.9575 3.6865 42.1832 3.56563C39.7658 1.87347 35.8376 0 30.5798 0C28.0415 0 25.3824 0.42304 22.6629 1.32956C13.5977 4.29084 9.79037 10.153 8.15864 14.6251C4.35127 17.5864 0 23.0255 0 32.5741C0 42.1228 4.35127 47.5619 8.15864 50.5231C9.79037 55.0557 13.5977 60.9178 22.6629 63.8187C25.3824 64.7252 28.0415 65.1483 30.5798 65.1483C35.8376 65.1483 39.7658 63.2748 42.1832 61.5826C46.9575 61.4618 53.7262 59.5883 59.2861 51.9131C62.4287 47.5619 64 43.0293 64 38.3154C64 36.3815 63.6978 34.4476 63.1539 32.5741C63.7583 30.7007 64 28.7668 64 26.8329Z" fill="#CE0021"/>
</svg>
